<svg xmlns="http://www.w3.org/2000/svg" width="377.333" height="377.333" preserveAspectRatio="xMidYMid meet" version="1.0" viewBox="0 0 283 283"><metadata>Created by potrace 1.11, written by Peter Selinger 2001-2013</metadata><g fill="#000" stroke="none"><path d="M260 1415 l0 -1416 533 4 c292 2 550 7 572 11 22 4 74 14 115 22 41 9 86 18 100 20 70 14 265 97 360 155 75 45 183 134 257 213 173 183 281 398 335 671 19 92 22 144 23 320 0 182 -3 225 -24 325 -86 414 -311 726 -667 921 -100 55 -278 118 -382 135 -173 29 -222 31 -709 33 l-513 2 0 -1416z" transform="translate(0.000000,283.000000) scale(0.100000,-0.100000)"/></g></svg>